<svg xmlns="http://www.w3.org/2000/svg" viewBox="0 0 24 24" fill="#000000" role="img" aria-label="OpenAI">
  <path d="M22.282 9.821a5.985 5.985 0 0 0-.516-4.91 6.046 6.046 0 0 0-6.51-2.9A6.065 6.065 0 0 0 4.981 4.18a5.985 5.985 0 0 0-3.998 2.9 6.046 6.046 0 0 0 .743 7.097 5.98 5.98 0 0 0 .51 4.911 6.051 6.051 0 0 0 6.515 2.9A5.985 5.985 0 0 0 13.26 24a6.056 6.056 0 0 0 5.772-4.206 5.99 5.99 0 0 0 3.997-2.9 6.056 6.056 0 0 0-.747-7.073zm-9.022 12.608a4.476 4.476 0 0 1-2.876-1.041l.142-.08 4.778-2.758a.776.776 0 0 0 .393-.681v-6.737l2.02 1.169a.071.071 0 0 1 .038.052v5.583a4.504 4.504 0 0 1-4.495 4.493zm-9.661-4.125a4.47 4.47 0 0 1-.535-3.014l.142.085 4.783 2.758a.775.775 0 0 0 .781 0l5.843-3.369v2.332a.08.08 0 0 1-.033.062l-4.833 2.79a4.499 4.499 0 0 1-6.148-1.644zm-1.257-7.978a4.485 4.485 0 0 1 2.366-1.973v5.672a.77.77 0 0 0 .388.676l5.814 3.355-2.02 1.168a.076.076 0 0 1-.071 0L3.96 18.09a4.504 4.504 0 0 1-1.618-6.665zm16.596 3.856l-5.814-3.355 2.02-1.168a.076.076 0 0 1 .071 0l4.83 2.787a4.499 4.499 0 0 1-.677 8.104v-5.677a.791.791 0 0 0-.43-.691zm2.01-3.023l-.14-.085-4.774-2.782a.776.776 0 0 0-.785 0L9.409 9.23V6.897a.08.08 0 0 1 .028-.062l4.83-2.787a4.499 4.499 0 0 1 6.68 4.66zm-12.64 4.186l-2.02-1.164a.08.08 0 0 1-.038-.057V6.073a4.499 4.499 0 0 1 7.376-3.454l-.142.08-4.778 2.758a.776.776 0 0 0-.393.681zm1.098-2.366l2.602-1.5 2.607 1.5v2.999l-2.597 1.5-2.607-1.5z"/>
</svg>

